<svg width="128" height="128" viewBox="0 0 128 128" fill="none" xmlns="http://www.w3.org/2000/svg">
<path d="M109.101 33.5889L116.007 26.683C133.998 51.6926 131.748 86.7622 109.255 109.255C86.7622 131.748 51.6926 133.998 26.683 116.007L33.5889 109.101C54.7427 123.399 83.7294 121.184 102.457 102.457C121.184 83.7294 123.399 54.7427 109.101 33.5889Z" fill="white"/>
<path d="M95.6994 19.7974L102.575 12.9219C77.4951 -6.06838 41.6176 -4.12727 18.7452 18.7452C-4.12727 41.6176 -6.06838 77.4951 12.9219 102.575L19.7974 95.6995C4.51775 74.4476 6.4331 44.6537 25.5434 25.5434C44.6537 6.43309 74.4476 4.51775 95.6994 19.7974Z" fill="white"/>
<path d="M14.1067 121.785L122.878 13.0132L116.08 6.215L7.30845 114.987L14.1067 121.785Z" fill="white"/>
<path d="M66.6964 88.9926L88.9928 66.6963C92.7473 62.9417 92.7473 56.8544 88.9928 53.0998L87.5869 51.6939L51.6941 87.5868L53.0999 88.9926C56.8545 92.7472 62.9418 92.7472 66.6964 88.9926Z" fill="white"/>
<path d="M40.033 62.3293L62.3294 40.0329C66.084 36.2783 72.1713 36.2784 75.9259 40.0329L77.3317 41.4388L41.4389 77.3316L40.033 75.9258C36.2785 72.1712 36.2785 66.0838 40.033 62.3293Z" fill="white"/>
</svg>
